<?xml version="1.0" encoding="UTF-8" standalone="no"?><!DOCTYPE svg PUBLIC "-//W3C//DTD SVG 1.1//EN" "http://www.w3.org/Graphics/SVG/1.1/DTD/svg11.dtd"><svg width="100%" height="100%" viewBox="0 0 96 96" version="1.1" xmlns="http://www.w3.org/2000/svg" xmlns:xlink="http://www.w3.org/1999/xlink" xml:space="preserve" xmlns:serif="http://www.serif.com/" style="fill-rule:evenodd;clip-rule:evenodd;stroke-linejoin:round;stroke-miterlimit:2;"><g><path d="M66.433,95.833l-50.925,0c-8.55,0 -15.508,-6.958 -15.508,-15.512l-0,-50.925c-0,-8.55 6.958,-15.509 15.508,-15.509l27.779,0c3.455,0 6.25,2.796 6.25,6.25c0,3.455 -2.795,6.25 -6.25,6.25l-27.779,0c-1.658,0 -3.008,1.35 -3.008,3.009l-0,50.925c-0,1.658 1.35,3.012 3.008,3.012l50.925,0c1.659,0 3.013,-1.35 3.013,-3.012l-0,-27.775c-0,-3.454 2.8,-6.25 6.25,-6.25c3.45,-0 6.25,2.796 6.25,6.25l-0,27.775c-0,8.554 -6.959,15.512 -15.513,15.512Z" style="fill:#fff;fill-rule:nonzero;"/><path d="M89.583,40.279c-3.45,0 -6.25,-2.796 -6.25,-6.25l0,-21.529l-21.529,-0c-3.45,-0 -6.25,-2.796 -6.25,-6.25c0,-3.454 2.8,-6.25 6.25,-6.25l27.779,-0c3.45,-0 6.25,2.796 6.25,6.25l0,27.779c0,3.45 -2.8,6.25 -6.25,6.25Z" style="fill:#fff;fill-rule:nonzero;"/><path d="M38.658,63.429c-1.6,0 -3.2,-0.608 -4.42,-1.829c-2.442,-2.442 -2.442,-6.396 -0,-8.837l50.925,-50.93c2.441,-2.441 6.395,-2.441 8.837,0c2.442,2.438 2.442,6.396 0,8.838l-50.925,50.929c-1.221,1.217 -2.817,1.829 -4.417,1.829Z" style="fill:#fff;fill-rule:nonzero;"/></g></svg>