<?xml version="1.0" encoding="UTF-8"?>
<svg id="Vrstva_1" data-name="Vrstva 1" xmlns="http://www.w3.org/2000/svg" viewBox="0 0 152.11 152.11">
  <defs>
    <style>
      .cls-1 {
        fill: #fff;
      }
    </style>
  </defs>
  <path class="cls-1" d="M76.05,86.07l-61.03,61.03c-2.77,2.77-7.25,2.76-10.01,0h0c-2.76-2.77-2.76-7.25,0-10.01l61.04-61.04L5,15.01c-2.76-2.76-2.76-7.25,0-10.01h0c2.76-2.76,7.25-2.76,10.01,0l61.04,61.04L137.09,5c2.76-2.76,7.24-2.76,10.01,0h0c2.77,2.77,2.77,7.25,0,10.02l-61.03,61.03,61.04,61.03c2.76,2.76,2.76,7.25,0,10.01h0c-2.76,2.77-7.25,2.77-10.01,0l-61.03-61.04h0l-.02.02Z"/>
</svg>