<?xml version="1.0" encoding="UTF-8"?>
<svg id="Vrstva_1" data-name="Vrstva 1" xmlns="http://www.w3.org/2000/svg" viewBox="0 0 256 256">
  <defs>
    <style>
      .cls-1 {
        fill: #fff;
      }
    </style>
  </defs>
  <path class="cls-1" d="M128,32c-38.07,0-70.3,21.9-85.82,53.73-1.88,3.86-.12,8.52,3.86,10.14l1.04.42c3.63,1.48,7.74-.16,9.47-3.68,13-26.46,39.63-44.61,71.44-44.61,25.94,0,49.06,12.72,63.5,32h-24.09c-4.09,0-7.41,3.32-7.41,7.41v1.19c0,4.09,3.32,7.41,7.41,7.41h41.19c4.09,0,7.41-3.32,7.41-7.41v-41.19c0-4.09-3.32-7.41-7.41-7.41h-1.19c-4.09,0-7.41,3.32-7.41,7.41v17.34c-17.53-20.09-43.44-32.75-72-32.75h0ZM208.91,159.71c-3.63-1.48-7.74.16-9.47,3.68-13,26.46-39.63,44.61-71.44,44.61-26.22,0-49.25-12.91-63.75-32h24.34c4.09,0,7.41-3.32,7.41-7.41v-1.19c0-4.09-3.32-7.41-7.41-7.41h-41.19c-4.09,0-7.41,3.32-7.41,7.41v41.19c0,4.09,3.32,7.41,7.41,7.41h1.19c4.09,0,7.41-3.32,7.41-7.41v-17.34c17.5,19.84,43.16,32.75,72,32.75,38.07,0,70.3-21.9,85.82-53.73,1.88-3.86.12-8.52-3.86-10.14l-1.04-.42h-.01Z"/>
</svg>