<?xml version="1.0" encoding="UTF-8"?>
<svg id="Vrstva_1" data-name="Vrstva 1" xmlns="http://www.w3.org/2000/svg" viewBox="0 0 566.93 566.93">
  <defs>
    <style>
      .cls-1 {
        fill: #fff600;
      }
    </style>
  </defs>
  <path class="cls-1" d="M392.32,565.94H91.58C41.09,565.94,0,524.85,0,474.34V173.6C0,123.11,41.09,82.01,91.58,82.01h164.05c20.4,0,36.91,16.51,36.91,36.91s-16.51,36.91-36.91,36.91H91.58c-9.79,0-17.76,7.97-17.76,17.77v300.74c0,9.79,7.97,17.79,17.76,17.79h300.74c9.8,0,17.79-7.97,17.79-17.79v-164.03c0-20.4,16.54-36.91,36.91-36.91s36.91,16.51,36.91,36.91v164.03c0,50.52-41.1,91.61-91.61,91.61Z"/>
  <path class="cls-1" d="M529.03,237.87c-20.37,0-36.91-16.51-36.91-36.91v-127.14h-127.14c-20.37,0-36.91-16.51-36.91-36.91S344.61,0,364.98,0h164.05C549.41,0,565.94,16.51,565.94,36.91v164.05c0,20.37-16.54,36.91-36.91,36.91Z"/>
  <path class="cls-1" d="M228.3,374.58c-9.45,0-18.9-3.59-26.1-10.8-14.42-14.42-14.42-37.77,0-52.19L502.93,10.82c14.42-14.42,37.77-14.42,52.19,0,14.42,14.4,14.42,37.77,0,52.19L254.38,363.78c-7.21,7.19-16.64,10.8-26.08,10.8h0Z"/>
</svg>